<svg width="348" height="48" viewBox="0 0 348 48" fill="none" xmlns="http://www.w3.org/2000/svg">
<g clip-path="url(#clip0_351_3893)">
<path d="M29.9998 12C27.6798 12 25.4532 13.08 23.9998 14.7867C22.5465 13.08 20.3198 12 17.9998 12C13.8932 12 10.6665 15.2267 10.6665 19.3333C10.6665 24.3733 15.1998 28.48 22.0665 34.72L23.9998 36.4667L25.9332 34.7067C32.7998 28.48 37.3332 24.3733 37.3332 19.3333C37.3332 15.2267 34.1065 12 29.9998 12ZM24.1332 32.7333L23.9998 32.8667L23.8665 32.7333C17.5198 26.9867 13.3332 23.1867 13.3332 19.3333C13.3332 16.6667 15.3332 14.6667 17.9998 14.6667C20.0532 14.6667 22.0532 15.9867 22.7598 17.8133H25.2532C25.9465 15.9867 27.9465 14.6667 29.9998 14.6667C32.6665 14.6667 34.6665 16.6667 34.6665 19.3333C34.6665 23.1867 30.4798 26.9867 24.1332 32.7333Z" fill="#002F52"/>
</g>
<g clip-path="url(#clip1_351_3893)">
<path d="M84.0002 16.0003H81.3335C81.3335 13.0537 78.9468 10.667 76.0002 10.667C73.0535 10.667 70.6668 13.0537 70.6668 16.0003H68.0002C66.5335 16.0003 65.3335 17.2003 65.3335 18.667V34.667C65.3335 36.1337 66.5335 37.3337 68.0002 37.3337H84.0002C85.4668 37.3337 86.6668 36.1337 86.6668 34.667V18.667C86.6668 17.2003 85.4668 16.0003 84.0002 16.0003ZM76.0002 13.3337C77.4668 13.3337 78.6668 14.5337 78.6668 16.0003H73.3335C73.3335 14.5337 74.5335 13.3337 76.0002 13.3337ZM84.0002 34.667H68.0002V18.667H70.6668V21.3337C70.6668 22.067 71.2668 22.667 72.0002 22.667C72.7335 22.667 73.3335 22.067 73.3335 21.3337V18.667H78.6668V21.3337C78.6668 22.067 79.2668 22.667 80.0002 22.667C80.7335 22.667 81.3335 22.067 81.3335 21.3337V18.667H84.0002V34.667Z" fill="#002F52"/>
</g>
<rect width="161" height="48" transform="translate(187)" fill="#EB9B00"/>
<path d="M226.572 30.112C225.75 30.112 225.014 29.9787 224.364 29.712C223.713 29.4453 223.19 29.0507 222.796 28.528C222.412 28.0053 222.209 27.376 222.188 26.64H225.1C225.142 27.056 225.286 27.376 225.532 27.6C225.777 27.8133 226.097 27.92 226.492 27.92C226.897 27.92 227.217 27.8293 227.452 27.648C227.686 27.456 227.804 27.1947 227.804 26.864C227.804 26.5867 227.708 26.3573 227.516 26.176C227.334 25.9947 227.105 25.8453 226.828 25.728C226.561 25.6107 226.177 25.4773 225.676 25.328C224.95 25.104 224.358 24.88 223.9 24.656C223.441 24.432 223.046 24.1013 222.716 23.664C222.385 23.2267 222.22 22.656 222.22 21.952C222.22 20.9067 222.598 20.0907 223.356 19.504C224.113 18.9067 225.1 18.608 226.316 18.608C227.553 18.608 228.55 18.9067 229.308 19.504C230.065 20.0907 230.47 20.912 230.524 21.968H227.564C227.542 21.6053 227.409 21.3227 227.164 21.12C226.918 20.9067 226.604 20.8 226.22 20.8C225.889 20.8 225.622 20.8907 225.42 21.072C225.217 21.2427 225.116 21.4933 225.116 21.824C225.116 22.1867 225.286 22.4693 225.628 22.672C225.969 22.8747 226.502 23.0933 227.228 23.328C227.953 23.5733 228.54 23.808 228.988 24.032C229.446 24.256 229.841 24.5813 230.172 25.008C230.502 25.4347 230.668 25.984 230.668 26.656C230.668 27.296 230.502 27.8773 230.172 28.4C229.852 28.9227 229.382 29.3387 228.764 29.648C228.145 29.9573 227.414 30.112 226.572 30.112ZM231.807 25.52C231.807 24.6027 231.978 23.7973 232.319 23.104C232.671 22.4107 233.146 21.8773 233.743 21.504C234.341 21.1307 235.007 20.944 235.743 20.944C236.373 20.944 236.922 21.072 237.391 21.328C237.871 21.584 238.239 21.92 238.495 22.336V21.072H241.231V30H238.495V28.736C238.229 29.152 237.855 29.488 237.375 29.744C236.906 30 236.357 30.128 235.727 30.128C235.002 30.128 234.341 29.9413 233.743 29.568C233.146 29.184 232.671 28.6453 232.319 27.952C231.978 27.248 231.807 26.4373 231.807 25.52ZM238.495 25.536C238.495 24.8533 238.303 24.3147 237.919 23.92C237.546 23.5253 237.087 23.328 236.543 23.328C235.999 23.328 235.535 23.5253 235.151 23.92C234.778 24.304 234.591 24.8373 234.591 25.52C234.591 26.2027 234.778 26.7467 235.151 27.152C235.535 27.5467 235.999 27.744 236.543 27.744C237.087 27.744 237.546 27.5467 237.919 27.152C238.303 26.7573 238.495 26.2187 238.495 25.536ZM244.587 20.144C244.107 20.144 243.712 20.0053 243.403 19.728C243.104 19.44 242.955 19.088 242.955 18.672C242.955 18.2453 243.104 17.8933 243.403 17.616C243.712 17.328 244.107 17.184 244.587 17.184C245.056 17.184 245.44 17.328 245.739 17.616C246.048 17.8933 246.203 18.2453 246.203 18.672C246.203 19.088 246.048 19.44 245.739 19.728C245.44 20.0053 245.056 20.144 244.587 20.144ZM245.947 21.072V30H243.211V21.072H245.947ZM250.666 22.336C250.922 21.92 251.29 21.584 251.77 21.328C252.25 21.072 252.799 20.944 253.418 20.944C254.154 20.944 254.82 21.1307 255.418 21.504C256.015 21.8773 256.484 22.4107 256.826 23.104C257.178 23.7973 257.354 24.6027 257.354 25.52C257.354 26.4373 257.178 27.248 256.826 27.952C256.484 28.6453 256.015 29.184 255.418 29.568C254.82 29.9413 254.154 30.128 253.418 30.128C252.788 30.128 252.239 30.0053 251.77 29.76C251.3 29.504 250.932 29.168 250.666 28.752V30H247.93V18.16H250.666V22.336ZM254.57 25.52C254.57 24.8373 254.378 24.304 253.994 23.92C253.62 23.5253 253.156 23.328 252.602 23.328C252.058 23.328 251.594 23.5253 251.21 23.92C250.836 24.3147 250.65 24.8533 250.65 25.536C250.65 26.2187 250.836 26.7573 251.21 27.152C251.594 27.5467 252.058 27.744 252.602 27.744C253.146 27.744 253.61 27.5467 253.994 27.152C254.378 26.7467 254.57 26.2027 254.57 25.52ZM258.245 25.52C258.245 24.6027 258.416 23.7973 258.757 23.104C259.109 22.4107 259.584 21.8773 260.181 21.504C260.778 21.1307 261.445 20.944 262.181 20.944C262.81 20.944 263.36 21.072 263.829 21.328C264.309 21.584 264.677 21.92 264.933 22.336V21.072H267.669V30H264.933V28.736C264.666 29.152 264.293 29.488 263.813 29.744C263.344 30 262.794 30.128 262.165 30.128C261.44 30.128 260.778 29.9413 260.181 29.568C259.584 29.184 259.109 28.6453 258.757 27.952C258.416 27.248 258.245 26.4373 258.245 25.52ZM264.933 25.536C264.933 24.8533 264.741 24.3147 264.357 23.92C263.984 23.5253 263.525 23.328 262.981 23.328C262.437 23.328 261.973 23.5253 261.589 23.92C261.216 24.304 261.029 24.8373 261.029 25.52C261.029 26.2027 261.216 26.7467 261.589 27.152C261.973 27.5467 262.437 27.744 262.981 27.744C263.525 27.744 263.984 27.5467 264.357 27.152C264.741 26.7573 264.933 26.2187 264.933 25.536ZM284.431 20.976C285.54 20.976 286.42 21.312 287.071 21.984C287.732 22.656 288.063 23.5893 288.063 24.784V30H285.343V25.152C285.343 24.576 285.188 24.1333 284.879 23.824C284.58 23.504 284.164 23.344 283.631 23.344C283.098 23.344 282.676 23.504 282.367 23.824C282.068 24.1333 281.919 24.576 281.919 25.152V30H279.199V25.152C279.199 24.576 279.044 24.1333 278.735 23.824C278.436 23.504 278.02 23.344 277.487 23.344C276.954 23.344 276.532 23.504 276.223 23.824C275.924 24.1333 275.775 24.576 275.775 25.152V30H273.039V21.072H275.775V22.192C276.052 21.8187 276.415 21.5253 276.863 21.312C277.311 21.088 277.818 20.976 278.383 20.976C279.055 20.976 279.652 21.12 280.175 21.408C280.708 21.696 281.124 22.1067 281.423 22.64C281.732 22.1493 282.154 21.7493 282.687 21.44C283.22 21.1307 283.802 20.976 284.431 20.976ZM289.432 25.52C289.432 24.6027 289.603 23.7973 289.944 23.104C290.296 22.4107 290.771 21.8773 291.368 21.504C291.966 21.1307 292.632 20.944 293.368 20.944C293.998 20.944 294.547 21.072 295.016 21.328C295.496 21.584 295.864 21.92 296.12 22.336V21.072H298.856V30H296.12V28.736C295.854 29.152 295.48 29.488 295 29.744C294.531 30 293.982 30.128 293.352 30.128C292.627 30.128 291.966 29.9413 291.368 29.568C290.771 29.184 290.296 28.6453 289.944 27.952C289.603 27.248 289.432 26.4373 289.432 25.52ZM296.12 25.536C296.12 24.8533 295.928 24.3147 295.544 23.92C295.171 23.5253 294.712 23.328 294.168 23.328C293.624 23.328 293.16 23.5253 292.776 23.92C292.403 24.304 292.216 24.8373 292.216 25.52C292.216 26.2027 292.403 26.7467 292.776 27.152C293.16 27.5467 293.624 27.744 294.168 27.744C294.712 27.744 295.171 27.5467 295.544 27.152C295.928 26.7573 296.12 26.2187 296.12 25.536ZM302.212 20.144C301.732 20.144 301.337 20.0053 301.028 19.728C300.729 19.44 300.58 19.088 300.58 18.672C300.58 18.2453 300.729 17.8933 301.028 17.616C301.337 17.328 301.732 17.184 302.212 17.184C302.681 17.184 303.065 17.328 303.364 17.616C303.673 17.8933 303.828 18.2453 303.828 18.672C303.828 19.088 303.673 19.44 303.364 19.728C303.065 20.0053 302.681 20.144 302.212 20.144ZM303.572 21.072V30H300.836V21.072H303.572ZM309.187 30.128C308.408 30.128 307.715 29.9947 307.107 29.728C306.499 29.4613 306.019 29.0987 305.667 28.64C305.315 28.1707 305.117 27.648 305.075 27.072H307.779C307.811 27.3813 307.955 27.632 308.211 27.824C308.467 28.016 308.781 28.112 309.155 28.112C309.496 28.112 309.757 28.048 309.939 27.92C310.131 27.7813 310.227 27.6053 310.227 27.392C310.227 27.136 310.093 26.9493 309.827 26.832C309.56 26.704 309.128 26.5653 308.531 26.416C307.891 26.2667 307.357 26.112 306.931 25.952C306.504 25.7813 306.136 25.52 305.827 25.168C305.517 24.8053 305.363 24.32 305.363 23.712C305.363 23.2 305.501 22.736 305.779 22.32C306.067 21.8933 306.483 21.5573 307.027 21.312C307.581 21.0667 308.237 20.944 308.995 20.944C310.115 20.944 310.995 21.2213 311.635 21.776C312.285 22.3307 312.659 23.0667 312.755 23.984H310.227C310.184 23.6747 310.045 23.4293 309.811 23.248C309.587 23.0667 309.288 22.976 308.915 22.976C308.595 22.976 308.349 23.04 308.179 23.168C308.008 23.2853 307.923 23.4507 307.923 23.664C307.923 23.92 308.056 24.112 308.323 24.24C308.6 24.368 309.027 24.496 309.603 24.624C310.264 24.7947 310.803 24.9653 311.219 25.136C311.635 25.296 311.997 25.5627 312.307 25.936C312.627 26.2987 312.792 26.7893 312.803 27.408C312.803 27.9307 312.653 28.4 312.355 28.816C312.067 29.2213 311.645 29.5413 311.091 29.776C310.547 30.0107 309.912 30.128 309.187 30.128Z" fill="white"/>
<defs>
<clipPath id="clip0_351_3893">
<rect width="32" height="32" fill="white" transform="translate(8 8)"/>
</clipPath>
<clipPath id="clip1_351_3893">
<rect width="32" height="32" fill="white" transform="translate(60 8)"/>
</clipPath>
</defs>
</svg>
